HIERARCHY
ROOT Hips
{
 OFFSET 0.000000 0.000000 0.000000
 CHANNELS 6 Xposition Yposition Zposition Yrotation Xrotation Zrotation
 JOINT Chest
 {
  OFFSET 0.000000 0.114328 -0.012703
  CHANNELS 3 Yrotation Xrotation Zrotation
  JOINT Chest2
  {
   OFFSET 0.000000 0.109600 0.000000
   CHANNELS 3 Yrotation Xrotation Zrotation
   JOINT Chest3
   {
    OFFSET 0.000000 0.100057 0.000037
    CHANNELS 3 Yrotation Xrotation Zrotation
    JOINT Chest4
    {
     OFFSET 0.000000 0.099945 0.000037
     CHANNELS 3 Yrotation Xrotation Zrotation
     JOINT Neck
     {
      OFFSET 0.000000 0.136615 0.000000
      CHANNELS 3 Yrotation Xrotation Zrotation
      JOINT Head
      {
       OFFSET 0.000000 0.086380 0.000454
       CHANNELS 3 Yrotation Xrotation Zrotation
       End Site
       {
        OFFSET 0.000000 0.154306 0.000133
       }
      }
     }
     JOINT RightCollar
     {
      OFFSET -0.027497 0.076558 0.000000
      CHANNELS 3 Yrotation Xrotation Zrotation
      JOINT RightShoulder
      {
       OFFSET -0.129121 0.000000 0.000000
       CHANNELS 3 Yrotation Xrotation Zrotation
       JOINT RightElbow
       {
        OFFSET -0.284532 0.000000 0.000000
        CHANNELS 3 Yrotation Xrotation Zrotation
        JOINT RightWrist
        {
         OFFSET -0.229938 0.000000 -0.000022
         CHANNELS 3 Yrotation Xrotation Zrotation
         End Site
         {
          OFFSET -0.197245 0.000000 0.000000
         }
        }
       }
      }
     }
     JOINT LeftCollar
     {
      OFFSET 0.027497 0.076558 0.000000
      CHANNELS 3 Yrotation Xrotation Zrotation
      JOINT LeftShoulder
      {
       OFFSET 0.129121 0.000000 0.000000
       CHANNELS 3 Yrotation Xrotation Zrotation
       JOINT LeftElbow
       {
        OFFSET 0.284532 0.000000 0.000000
        CHANNELS 3 Yrotation Xrotation Zrotation
        JOINT LeftWrist
        {
         OFFSET 0.229938 0.000000 -0.000022
         CHANNELS 3 Yrotation Xrotation Zrotation
         End Site
         {
          OFFSET 0.197245 0.000000 0.000000
         }
        }
       }
      }
     }
    }
   }
  }
 }
 JOINT RightHip
 {
  OFFSET -0.093852 -0.000079 0.000009
  CHANNELS 3 Yrotation Xrotation Zrotation
  JOINT RightKnee
  {
   OFFSET 0.000000 -0.450301 0.000055
   CHANNELS 3 Yrotation Xrotation Zrotation
   JOINT RightAnkle
   {
    OFFSET 0.000000 -0.403972 0.000066
    CHANNELS 3 Yrotation Xrotation Zrotation
    JOINT RightToe
    {
     OFFSET 0.000000 -0.080118 0.183255
     CHANNELS 3 Yrotation Xrotation Zrotation
     End Site
     {
      OFFSET 0.000000 -0.016568 0.073719
     }
    }
   }
  }
 }
 JOINT LeftHip
 {
  OFFSET 0.093852 -0.000100 0.000011
  CHANNELS 3 Yrotation Xrotation Zrotation
  JOINT LeftKnee
  {
   OFFSET 0.000000 -0.450301 0.000055
   CHANNELS 3 Yrotation Xrotation Zrotation
   JOINT LeftAnkle
   {
    OFFSET 0.000000 -0.403972 0.000066
    CHANNELS 3 Yrotation Xrotation Zrotation
    JOINT LeftToe
    {
     OFFSET 0.000000 -0.080118 0.183255
     CHANNELS 3 Yrotation Xrotation Zrotation
     End Site
     {
      OFFSET 0.000000 -0.016568 0.073719
     }
    }
   }
  }
 }
}
MOTION
Frames: 17
Frame Time: 0.016667
0.115561 0.956155 -0.242010 9.691714 65.352517 1.532675 -2.907222 17.362969 3.679640 -1.591159 1.870203 1.711250 -1.604913 7.688370 1.548238 -1.099125 11.597738 1.198107 -0.213891 7.172379 0.537837 -0.705153 -22.704423 1.182746 6.371066 19.716230 -11.924244 82.537830 -40.062843 -15.447141 27.967818 -23.766125 1.139011 2.588029 0.853048 -22.193925 -5.793338 22.045231 -4.122071 -99.006196 -56.167365 19.851538 -19.259432 7.037913 11.899094 1.536476 1.013669 17.875830 -3.963548 -78.527420 -0.517324 0.078106 9.871654 1.057405 5.753342 9.095483 4.896671 0.112079 -6.020677 -2.131011 -0.805224 -76.581781 1.249392 -0.664712 6.945223 -1.377359 -5.288209 9.417857 -1.832732 -0.070062 -5.169292 1.550212
0.117061 0.956355 -0.241203 9.267830 63.644355 1.209520 -2.924000 17.423369 3.630330 -1.594960 1.897169 1.690613 -1.608833 7.715330 1.527221 -1.103467 11.618039 1.182288 -0.295600 7.177268 0.576529 -0.887928 -22.693688 1.302124 6.407689 19.765783 -11.763323 81.251229 -40.336384 -13.926322 28.342001 -23.155018 1.944681 2.492975 0.882107 -22.144510 -5.939962 22.023253 -4.326831 -96.677687 -56.451528 17.451789 -19.265325 7.655461 11.573689 1.283421 1.061757 17.971177 -4.052344 -76.736992 -0.455828 0.256581 9.783107 1.105590 5.831789 9.154550 5.014620 0.115936 -6.085774 -2.180683 0.013856 -74.929784 0.518963 -0.743423 7.237376 -1.439817 -5.297059 9.197017 -1.732236 -0.071773 -5.163522 1.591638
0.118308 0.956563 -0.240281 8.951768 61.920803 0.984093 -2.988128 17.453696 3.555876 -1.617425 1.910564 1.660708 -1.631528 7.728671 1.495012 -1.122545 11.628128 1.158133 -0.359051 7.224562 0.612632 -1.032124 -22.604373 1.406040 6.146558 19.967532 -11.713943 80.328484 -40.519614 -12.440215 28.891113 -22.931752 2.500649 2.153385 0.944128 -21.862110 -6.000495 21.990457 -4.521121 -94.304106 -56.788944 15.036596 -19.349914 8.091219 11.110072 1.198800 1.080694 18.098099 -4.479812 -74.938449 -0.067931 0.507645 9.722600 1.121579 5.923226 9.194284 5.086725 0.117830 -6.153596 -2.191829 0.489442 -73.296875 0.142473 -0.772845 7.602519 -1.548407 -5.318911 8.965030 -1.651331 -0.075233 -5.190226 1.659762
0.119393 0.956755 -0.239235 8.701822 60.166424 0.817081 -3.080669 17.458744 3.461715 -1.650654 1.912622 1.623197 -1.665038 7.730636 1.454083 -1.150254 11.629695 1.127429 -0.413039 7.299997 0.648394 -1.156529 -22.462796 1.503591 5.728225 20.265497 -11.724071 79.583382 -40.717004 -10.912741 29.582438 -22.923906 2.878971 1.653435 1.040846 -21.390353 -5.997792 21.941818 -4.700262 -91.824988 -57.134738 12.533838 -19.469074 8.459422 10.553524 1.189192 1.078414 18.258312 -4.965769 -73.123610 0.366744 0.781906 9.710465 1.118902 6.027058 9.200296 5.127893 0.118509 -6.220696 -2.180645 0.773574 -71.664930 -0.044321 -0.776801 8.043479 -1.671933 -5.342378 8.698589 -1.565842 -0.078707 -5.226926 1.724178
0.120460 0.956941 -0.237918 8.485111 58.372085 0.673401 -3.143827 17.429113 3.370134 -1.670896 1.899464 1.585622 -1.685416 7.717403 1.414455 -1.168046 11.619880 1.097506 -0.479583 7.381087 0.681620 -1.304133 -22.310302 1.602093 5.375735 20.587030 -11.650284 78.588817 -41.187369 -9.095337 30.574103 -22.742385 3.060352 1.108408 1.226848 -20.693852 -5.943422 21.857853 -4.824292 -89.166096 -57.492442 9.712737 -19.690182 8.896325 9.940907 1.148409 1.052829 18.428804 -5.298163 -71.264230 0.639048 1.009912 9.729559 1.111734 6.145238 9.167887 5.169505 0.119482 -6.283735 -2.176458 1.103920 -69.966366 -0.292650 -0.802725 8.466313 -1.754611 -5.377744 8.423082 -1.464209 -0.080689 -5.264098 1.755110
0.121597 0.957114 -0.236321 8.287571 56.533745 0.539735 -3.146365 17.350823 3.288832 -1.664868 1.865062 1.550065 -1.679241 7.683001 1.379552 -1.165656 11.594227 1.070761 -0.573372 7.465944 0.715216 -1.505610 -22.150046 1.714839 5.184609 20.979461 -11.417563 77.096008 -41.997970 -6.866680 31.997437 -22.249184 2.931917 0.443596 1.571433 -19.619806 -5.827606 21.720829 -4.867759 -86.321982 -57.891601 6.429510 -20.016255 9.431386 9.287743 1.045280 0.974230 18.629291 -5.425873 -69.351822 0.696909 1.152115 9.767164 1.109690 6.286901 9.112408 5.234083 0.122040 -6.350653 -2.199582 1.530777 -68.183735 -0.665136 -0.862907 8.849008 -1.762455 -5.427252 8.148719 -1.334613 -0.080215 -5.303031 1.731975
0.122717 0.957282 -0.234453 8.117219 54.655553 0.423203 -3.118359 17.238347 3.213980 -1.645633 1.815677 1.515985 -1.659686 7.633674 1.347452 -1.153062 11.557405 1.045900 -0.679956 7.556371 0.744375 -1.729721 -21.979096 1.824760 5.053602 21.394752 -11.092522 75.232520 -43.036030 -4.267993 33.714803 -21.588051 2.658073 -0.263763 1.998949 -18.321436 -5.664297 21.548480 -4.853878 -83.241369 -58.263177 2.785666 -20.447998 10.027674 8.571788 0.910417 0.873959 18.841480 -5.483239 -67.395891 0.678287 1.248147 9.836188 1.103148 6.442825 9.018519 5.298787 0.124937 -6.413512 -2.229689 1.973064 -66.333610 -1.063382 -0.943576 9.213592 -1.728961 -5.488335 7.865270 -1.188736 -0.078169 -5.342439 1.675332
0.123699 0.957475 -0.232197 7.979274 52.740520 0.324262 -3.095272 17.125171 3.151133 -1.629584 1.765906 1.487304 -1.643348 7.583967 1.320421 -1.142547 11.520278 1.024937 -0.776731 7.635346 0.755680 -1.925222 -21.829900 1.894166 4.906970 21.618325 -10.737957 73.076954 -44.270246 -1.259301 35.482185 -20.811478 2.646781 -0.678334 2.332955 -17.215763 -5.501896 21.374438 -4.818615 -79.835333 -58.443493 -1.037948 -21.058517 10.718593 7.771852 0.731973 0.840845 18.986353 -5.566395 -65.396070 0.690601 1.347194 9.957861 1.077256 6.587360 8.835514 5.326930 0.125863 -6.445146 -2.235134 2.416053 -64.398827 -1.438314 -1.052881 9.532214 -1.699568 -5.563965 7.567501 -1.050187 -0.075828 -5.368958 1.617124
0.124473 0.957710 -0.229488 7.873311 50.781286 0.239010 -3.106304 17.032962 3.108143 -1.630434 1.725129 1.468613 -1.644086 7.543209 1.301649 -1.144279 11.489793 1.010510 -0.843812 7.694640 0.730736 -2.043772 -21.718894 1.876944 4.710991 21.540069 -10.387020 70.579645 -45.815430 2.285827 37.240333 -19.859961 3.113100 -0.655016 2.490400 -16.432364 -5.323095 21.229587 -4.776968 -76.135101 -58.325289 -4.914085 -21.949138 11.485736 6.880667 0.519708 0.925860 19.024209 -5.755450 -63.350782 0.816980 1.472640 10.164975 1.018351 6.723848 8.510868 5.293302 0.123125 -6.418038 -2.195753 2.874892 -62.354931 -1.780765 -1.201985 9.777235 -1.700677 -5.659256 7.259909 -0.922484 -0.073584 -5.375752 1.567289
0.125109 0.957971 -0.226391 7.793857 48.785319 0.164953 -3.124275 16.939953 3.075039 -1.635178 1.683859 1.454475 -1.648749 7.501925 1.287035 -1.148675 11.458877 0.999294 -0.898447 7.742714 0.689936 -2.129885 -21.629364 1.822240 4.488849 21.270400 -10.014438 67.537318 -47.475023 6.415318 39.033045 -18.847282 3.897964 -0.351769 2.538419 -15.831377 -5.146653 21.082961 -4.713560 -72.272020 -57.957770 -8.824481 -23.040517 12.330599 5.902267 0.262763 1.075228 18.995135 -5.951646 -61.261228 0.953212 1.600364 10.424702 0.939406 6.849017 8.097165 5.222975 0.118446 -6.359670 -2.131750 3.327665 -60.226320 -2.087456 -1.380354 9.976272 -1.705607 -5.769126 6.938034 -0.801880 -0.071090 -5.369655 1.515904
0.125699 0.958240 -0.222984 7.737862 46.777888 0.103969 -3.099047 16.814453 3.031677 -1.619786 1.628431 1.434191 -1.633061 7.446521 1.268364 -1.138093 11.417420 0.984704 -0.975472 7.787429 0.677180 -2.274583 -21.544433 1.834419 4.247202 20.926725 -9.601645 63.938829 -48.750830 10.942844 40.774583 -18.076361 4.792609 0.111403 2.530673 -15.423873 -5.076385 20.874533 -4.626947 -68.344209 -57.415216 -12.717536 -24.143441 13.318735 4.828671 -0.080324 1.219717 18.942052 -5.997995 -59.131635 0.943769 1.708612 10.659892 0.866046 6.927146 7.701393 5.155024 0.114501 -6.325390 -2.071987 3.720620 -58.069649 -2.336743 -1.563905 10.184347 -1.680321 -5.881308 6.583211 -0.701063 -0.068557 -5.357831 1.465129
0.126293 0.958508 -0.219288 7.713619 44.765761 0.065128 -2.989975 16.632476 2.977596 -1.566073 1.548504 1.406014 -1.578671 7.366743 1.245742 -1.098799 11.357787 0.966558 -1.108690 7.837581 0.712101 -2.554179 -21.446240 1.968924 3.955203 20.525147 -9.117914 59.801858 -49.450102 15.788605 42.495016 -17.651849 5.735747 0.764420 2.483569 -15.250566 -5.205513 20.561549 -4.521344 -64.321559 -56.671629 -16.599643 -25.241394 14.535082 3.613612 -0.565302 1.333925 18.840823 -5.816690 -56.958314 0.710360 1.777361 10.833002 0.817771 6.935980 7.382134 5.112931 0.112898 -6.349572 -2.035192 4.067764 -55.902216 -2.565516 -1.746800 10.423433 -1.599040 -6.000005 6.182514 -0.629429 -0.066030 -5.339102 1.416075
0.126842 0.958785 -0.215281 7.707892 42.742230 0.033975 -2.834733 16.418443 2.919181 -1.491394 1.454655 1.374215 -1.503142 7.273105 1.221616 -1.043798 11.287802 0.946964 -1.268874 7.884099 0.769929 -2.898486 -21.353059 2.162144 3.627160 20.049360 -8.605139 55.338314 -49.663513 20.817503 44.155053 -17.463330 6.742719 1.590200 2.402165 -15.264758 -5.451268 20.185157 -4.413298 -60.338673 -55.725148 -20.349821 -26.387477 15.883432 2.283593 -1.138992 1.440343 18.725756 -5.547729 -54.743976 0.403340 1.827065 10.981806 0.776025 6.897771 7.080834 5.073934 0.111937 -6.397877 -2.002609 4.373411 -53.707002 -2.754056 -1.933809 10.671422 -1.487090 -6.120640 5.748762 -0.577331 -0.063479 -5.314646 1.367640
0.127289 0.959075 -0.210981 7.689213 40.712311 -0.018879 -2.699236 16.213176 2.846612 -1.424421 1.364617 1.337039 -1.435427 7.183239 1.191294 -0.995067 11.220635 0.922774 -1.397186 7.907912 0.829363 -3.181339 -21.302648 2.343260 3.348123 19.568134 -8.143765 51.058775 -49.404984 25.592728 45.583357 -17.442485 7.664943 2.400018 2.324553 -15.353896 -5.650337 19.810963 -4.314593 -56.624731 -54.724112 -23.829051 -27.477037 17.171675 0.941567 -1.672614 1.547439 18.722660 -5.356142 -52.503874 0.204830 1.896793 11.142244 0.709553 6.843386 6.728779 5.007918 0.109239 -6.422611 -1.946798 4.591726 -51.490031 -2.822501 -2.116969 10.917308 -1.387481 -6.217815 5.301905 -0.529151 -0.060980 -5.295169 1.318654
0.127580 0.959384 -0.206421 7.650838 38.679406 -0.104294 -2.616510 16.030755 2.753866 -1.379408 1.284469 1.293065 -1.389877 7.103201 1.151940 -0.963515 11.160824 0.892048 -1.464097 7.889719 0.892373 -3.346364 -21.331665 2.502454 3.182459 19.106789 -7.767438 47.261250 -48.663141 29.856214 46.764403 -17.622588 8.396468 3.199403 2.268733 -15.557211 -5.725147 19.471712 -4.227079 -53.214270 -53.754079 -27.000720 -28.473658 18.400568 -0.410392 -2.131344 1.678876 18.938344 -5.277981 -50.262594 0.167870 2.002957 11.359498 0.592840 6.771513 6.290797 4.897422 0.103606 -6.413573 -1.848358 4.697681 -49.259412 -2.726875 -2.293643 11.153211 -1.336124 -6.277242 4.867593 -0.486074 -0.059226 -5.296085 1.280523
0.127769 0.959706 -0.201567 7.604123 36.640044 -0.207358 -2.552392 15.856802 2.644597 -1.341437 1.208021 1.242594 -1.351431 7.026847 1.105385 -0.937749 11.103786 0.855972 -1.499347 7.848763 0.961850 -3.452932 -21.403445 2.659572 3.078494 18.639517 -7.427255 43.888591 -47.562330 33.681614 47.731012 -17.925827 8.999131 3.986676 2.225395 -15.839246 -5.749124 19.135272 -4.137471 -49.995711 -52.770220 -29.964615 -29.403350 19.577568 -1.774803 -2.540741 1.818746 19.259171 -5.247926 -47.996191 0.206978 2.127790 11.588706 0.450881 6.683766 5.801941 4.760801 0.096326 -6.380881 -1.726711 4.748076 -47.007826 -2.546327 -2.467322 11.387045 -1.297594 -6.313200 4.420186 -0.447341 -0.057501 -5.301998 1.241831
0.127954 0.960028 -0.196341 7.547501 34.588900 -0.315651 -2.471995 15.689321 2.522379 -1.295319 1.134554 1.185932 -1.304789 6.953489 1.053462 -0.906213 11.049020 0.815739 -1.530213 7.823993 1.020585 -3.544567 -21.445678 2.792430 2.953196 18.158930 -7.075442 40.816423 -46.369773 37.228168 48.395658 -18.105561 9.582832 4.553039 2.171873 -15.985147 -5.783152 18.769861 -4.027020 -46.915530 -51.743952 -32.847951 -30.211609 20.536333 -3.035832 -2.866600 1.913871 19.470540 -5.253384 -45.648389 0.264823 2.259613 11.730512 0.327545 6.615540 5.298842 4.621006 0.088859 -6.307335 -1.612654 4.817477 -44.718529 -2.383163 -2.638860 11.631668 -1.207851 -6.343140 3.902717 -0.394579 -0.053793 -5.277396 1.167183
